<?xml version="1.0" standalone="no"?>
<!DOCTYPE svg PUBLIC "-//W3C//DTD SVG 20010904//EN"
 "http://www.w3.org/TR/2001/REC-SVG-20010904/DTD/svg10.dtd">
<svg version="1.0" xmlns="http://www.w3.org/2000/svg"
 width="16.000000pt" height="16.000000pt" viewBox="0 0 16.000000 16.000000"
 preserveAspectRatio="xMidYMid meet">
<metadata>
Created by potrace 1.11, written by Peter Selinger 2001-2013
</metadata>
<g transform="translate(0.000000,16.000000) scale(0.001970,-0.001970)"
fill="#000000" stroke="none">
<path d="M2370 8114 c0 0 185 -185 410 -411 226 -225 410 -413 410 -418 0 -4
-82 -90 -182 -190 -101 -101 -192 -192 -202 -204 l-20 -22 1103 -1102 1103
-1103 203 204 204 204 412 -412 412 -412 -984 -984 c-541 -541 -987 -984 -990
-984 -3 0 -191 185 -418 412 l-412 412 203 203 203 203 -317 317 -316 316
-553 -552 -553 -552 315 -315 316 -316 203 201 204 200 415 -415 416 -414
-985 -985 -985 -985 380 -1 c209 0 615 -2 903 -4 l522 -4 985 985 c542 542
985 988 985 991 0 3 -62 68 -139 144 -76 76 -137 140 -135 142 2 2 132 2 289
0 l286 -3 991 990 991 991 -413 414 -413 413 -51 0 c-28 0 -211 0 -408 1
l-356 1 -896 896 c-493 493 -896 899 -896 902 0 4 90 97 200 207 110 109 200
202 200 205 0 3 -187 192 -415 420 l-415 415 -905 0 c-498 0 -905 0 -905 -1z"/>
<path d="M117 5850 l-39 -5 395 -394 c218 -217 399 -397 404 -400 4 -3 14 -14
21 -23 12 -15 -8 -39 -182 -212 -108 -108 -196 -199 -196 -203 0 -5 148 -156
330 -338 l330 -329 35 34 c36 34 1058 1058 1062 1063 1 1 -148 153 -331 336
l-334 333 -201 -201 c-110 -111 -203 -201 -205 -201 -2 0 -127 123 -277 273
l-273 272 -250 0 c-138 0 -268 -2 -289 -5z"/>
</g>
</svg>
